<?xml version="1.0" encoding="utf-8"?>
<svg viewBox="0 0 500 500" xmlns="http://www.w3.org/2000/svg">
  <ellipse style="stroke: rgb(0, 0, 0); fill: rgb(0, 255, 76);" cx="213.953" cy="154.942" rx="97.093" ry="102.035"/>
  <path style="stroke: rgb(0, 0, 0); fill: none;" d="M 147.674 196.512 C 158.648 207.485 173.939 224.384 198.256 216.279 C 202.917 214.725 207.394 212.291 211.047 210.465 C 213.343 209.317 214.626 205.187 216.86 204.07 C 218.124 203.438 220.93 194.186 220.93 194.186 C 220.93 194.186 228.189 207.259 229.07 208.14 C 237.761 216.831 262.89 219.668 272.674 209.884 C 275.819 206.739 275.581 201.788 275.581 196.512"/>
  <path style="stroke: rgb(0, 0, 0); fill: none;" d="M 207.558 61.628 C 204.126 61.628 205.984 70.008 204.651 72.674 C 201.02 79.938 214.699 88.871 221.512 85.465 C 229.415 81.513 231.619 65.81 223.256 61.628 C 216.158 58.079 209.11 67.831 213.372 72.093 C 215.261 73.982 221.659 67.442 222.674 67.442"/>
  <path style="stroke: rgb(0, 0, 0); fill: none;" d="M 154.07 140.116 C 154.07 127.729 149.741 103.166 158.14 94.767 C 164.919 87.988 173.481 94.299 179.07 97.093 C 191.029 103.073 197.093 123.975 197.093 140.116"/>
  <path style="stroke: rgb(0, 0, 0); fill: none;" d="M 212.791 128.488 C 212.791 113.343 222.189 103.44 232.558 98.256 C 235.742 96.664 244.331 89.099 248.256 93.023 C 252.109 96.876 250.849 105.768 253.488 111.047 C 254.866 113.802 252.035 120.058 254.07 122.093 C 256.444 124.467 257.558 131.119 257.558 134.884"/>
  <path style="stroke: rgb(0, 0, 0); fill: rgb(250, 0, 0);" d="M 162.791 156.395 C 157.543 154.646 154.07 144.736 154.07 138.953 C 154.07 137.749 153.303 132.162 154.07 131.395 C 155.317 130.148 156.764 127.171 157.558 125.581 C 158.272 124.155 162.863 123.765 163.953 122.674 C 168.783 117.845 183.706 120.334 188.372 125 C 192.533 129.161 201.372 144.558 193.605 152.326 C 189.581 156.349 177.72 154.651 171.512 154.651 C 169.672 154.651 163.953 154.944 163.953 153.488"/>
  <path style="stroke: rgb(0, 0, 0); fill: rgb(255, 0, 0);" d="M 236.628 148.837 C 214.49 156.217 203.053 126.671 222.674 116.86 C 237.418 109.489 249.869 120.669 254.07 129.07 C 255.07 131.071 258.264 136.96 256.395 140.698 C 253.959 145.569 239.315 156.176 231.395 148.256"/>
</svg>